<svg width="203" height="37" viewBox="0 0 203 37" fill="none" xmlns="http://www.w3.org/2000/svg">
<path d="M10.752 2.304C12.096 1.856 13.312 1.632 14.4 1.632C16.064 1.632 17.36 2.224 18.288 3.408C19.216 4.56 19.936 6.208 20.448 8.352C20.608 8.992 20.928 10.4 21.408 12.576C21.92 14.752 22.336 16.512 22.656 17.856C23.648 22.048 24.544 25.296 25.344 27.6C26.176 29.904 27.488 31.744 29.28 33.12C28.896 34.08 28.256 34.848 27.36 35.424C26.496 36 25.552 36.288 24.528 36.288C22.192 36.288 20.48 34.528 19.392 31.008C18.88 29.376 18.416 27.776 18 26.208C16.88 26.592 15.488 26.784 13.824 26.784C12.192 26.784 10.176 26.608 7.776 26.256C6.784 30.128 6.288 33.04 6.288 34.992C6.288 35.408 6.304 35.712 6.336 35.904C5.92 35.968 5.216 36 4.224 36C3.232 36 2.352 35.696 1.584 35.088C0.848 34.448 0.48 33.552 0.48 32.4C0.48 30.8 2.016 26.112 5.088 18.336C8.16 10.56 10.048 5.216 10.752 2.304ZM8.88 22.224C10.16 22.384 11.456 22.464 12.768 22.464C14.112 22.464 15.536 22.32 17.04 22.032C16.752 20.72 15.776 15.696 14.112 6.96C12.128 12.112 10.384 17.2 8.88 22.224ZM32.0273 34.32C32.7633 27.952 33.1313 23.568 33.1313 21.168C33.1313 14.448 32.8593 7.584 32.3153 0.575998C33.2753 0.191998 34.2993 -2.86102e-06 35.3873 -2.86102e-06C36.4753 -2.86102e-06 37.4033 0.367997 38.1713 1.104C38.9393 1.84 39.3233 2.768 39.3233 3.888C39.3233 5.808 39.1313 8.88 38.7473 13.104C38.3633 17.296 38.1233 20.096 38.0273 21.504C40.6513 16.576 43.2593 13.504 45.8513 12.288C47.0033 11.712 48.2353 11.424 49.5473 11.424C51.3393 11.424 52.7153 12.368 53.6753 14.256C54.6673 16.144 55.1633 18.448 55.1633 21.168C55.1633 25.52 53.9793 29.136 51.6113 32.016C49.2433 34.864 46.1713 36.288 42.3953 36.288C38.6513 36.288 35.1953 35.632 32.0273 34.32ZM37.7873 31.296C39.0673 31.776 40.5873 32.016 42.3473 32.016C44.1073 32.016 45.6273 31.68 46.9073 31.008C48.4753 28.32 49.2593 25.392 49.2593 22.224C49.2593 20.72 49.0833 19.264 48.7313 17.856C48.3793 16.416 47.8193 15.696 47.0513 15.696C45.8673 15.696 44.3153 17.328 42.3953 20.592C40.4753 23.856 38.9393 27.424 37.7873 31.296ZM67.857 36.576C64.337 36.576 61.745 35.552 60.081 33.504C58.417 31.424 57.585 28.544 57.585 24.864C57.585 21.152 58.689 17.936 60.897 15.216C63.105 12.496 65.937 11.136 69.393 11.136C76.497 11.136 80.049 15.136 80.049 23.136C80.049 26.88 78.897 30.064 76.593 32.688C74.289 35.28 71.377 36.576 67.857 36.576ZM64.401 16.416C63.825 18.272 63.537 20.128 63.537 21.984C63.537 23.84 63.601 25.28 63.729 26.304C63.857 27.328 64.097 28.352 64.449 29.376C65.185 31.456 66.625 32.496 68.769 32.496C70.945 32.496 72.369 31.92 73.041 30.768C73.745 29.616 74.097 27.84 74.097 25.44C74.097 18.624 72.481 15.216 69.249 15.216C67.393 15.216 65.777 15.616 64.401 16.416ZM84.3521 31.104L84.8321 21.12C84.8321 18.016 84.3841 15.072 83.4881 12.288C84.3841 11.904 85.4881 11.712 86.8001 11.712C89.3601 11.712 90.6401 13.136 90.6401 15.984C90.6401 17.584 90.4641 19.84 90.1121 22.752C89.7601 25.632 89.5841 27.728 89.5841 29.04C89.5841 30.64 90.3041 31.44 91.7441 31.44C92.6081 31.44 93.6161 30.72 94.7681 29.28C95.9521 27.808 96.9601 26.176 97.7921 24.384C98.6561 22.56 99.1681 21.072 99.3281 19.92C99.1361 16.4 98.8641 13.856 98.5121 12.288C99.5361 11.904 100.576 11.712 101.632 11.712C102.72 11.712 103.616 12.048 104.32 12.72C105.056 13.392 105.424 14.224 105.424 15.216C105.424 16.208 105.28 17.856 104.992 20.16C104.704 22.464 104.56 24.88 104.56 27.408C104.56 29.904 104.848 32.576 105.424 35.424C104.176 35.808 103.056 36 102.064 36C100.08 36 99.0881 34.688 99.0881 32.064C99.0881 30.912 99.2161 29.312 99.4721 27.264C98.1921 29.984 96.6241 32.176 94.7681 33.84C92.9441 35.472 91.0881 36.288 89.2001 36.288C85.9681 36.288 84.3521 34.56 84.3521 31.104ZM112.181 4.656C113.205 4.144 114.245 3.888 115.301 3.888C116.357 3.888 117.205 4.224 117.845 4.896C118.517 5.568 118.853 6.56 118.853 7.872C118.853 9.184 118.773 10.672 118.613 12.336C121.013 12.336 123.301 12 125.477 11.328C125.861 11.968 126.053 12.72 126.053 13.584C126.053 14.416 125.669 15.104 124.901 15.648C124.165 16.16 123.413 16.416 122.645 16.416C121.877 16.416 121.013 16.32 120.053 16.128C119.093 15.936 118.469 15.824 118.181 15.792C118.149 16.08 118.053 16.656 117.893 17.52C117.765 18.384 117.653 19.136 117.557 19.776C117.301 21.536 117.173 23.424 117.173 25.44C117.173 29.824 118.597 32.016 121.445 32.016C122.501 32.016 123.717 31.648 125.093 30.912C125.509 31.52 125.717 32.304 125.717 33.264C125.717 34.224 125.189 34.976 124.133 35.52C123.109 36.032 121.877 36.288 120.437 36.288C114.805 36.288 111.989 33.088 111.989 26.688C111.989 25.76 112.117 24.08 112.373 21.648C112.661 19.216 112.805 17.248 112.805 15.744C111.269 15.84 110.037 16.112 109.109 16.56C108.725 15.984 108.533 15.328 108.533 14.592C108.533 13.824 108.805 13.2 109.349 12.72C109.893 12.208 110.565 11.952 111.365 11.952C112.165 11.952 112.693 11.968 112.949 12C112.981 11.744 112.997 11.408 112.997 10.992C112.997 8.592 112.725 6.48 112.181 4.656Z" fill="#333333"/>
<path d="M177.689 4.608L177.449 12.528C177.449 16.88 177.577 20.784 177.833 24.24C178.089 27.664 178.665 31.392 179.561 35.424C178.857 36 177.737 36.288 176.201 36.288C173.225 36.288 171.737 34.992 171.737 32.4C171.737 30.256 171.833 26.976 172.025 22.56C172.249 18.144 172.361 14.688 172.361 12.192C170.633 14.688 168.809 17.776 166.889 21.456C165.001 25.104 164.057 27.344 164.057 28.176C164.057 29.008 164.137 29.648 164.297 30.096C163.593 30.544 162.649 30.768 161.465 30.768C160.313 30.768 159.337 30.448 158.537 29.808C157.769 29.168 157.113 28.288 156.569 27.168C156.057 26.048 155.129 23.856 153.785 20.592C152.473 17.296 151.273 14.464 150.185 12.096C149.353 17.248 148.937 21.808 148.937 25.776C148.937 29.744 149.065 32.96 149.321 35.424C148.297 35.808 147.273 36 146.249 36C144.201 36 143.177 34.976 143.177 32.928C143.177 31.36 143.529 28.24 144.233 23.568C144.969 18.864 145.337 14.896 145.337 11.664C145.337 8.432 145.161 5.408 144.809 2.592C146.537 2.144 147.881 1.92 148.841 1.92C150.601 1.92 151.785 2.544 152.393 3.792C153.353 5.808 154.761 9.024 156.617 13.44C158.505 17.824 160.041 21.2 161.225 23.568C161.545 22.896 162.281 21.456 163.433 19.248C164.617 17.008 165.593 15.104 166.361 13.536C167.161 11.936 167.961 10.048 168.761 7.872C169.593 5.664 170.121 3.744 170.345 2.112C171.497 1.792 172.617 1.632 173.705 1.632C174.825 1.632 175.769 1.872 176.537 2.352C177.305 2.832 177.689 3.584 177.689 4.608ZM188.504 25.104C188.504 27.408 188.872 29.232 189.608 30.576C190.344 31.888 191.576 32.544 193.304 32.544C195.032 32.544 196.376 31.968 197.336 30.816C198.328 29.632 198.824 28.208 198.824 26.544C199.912 26.544 200.856 26.816 201.656 27.36C202.456 27.904 202.856 28.656 202.856 29.616C202.856 31.6 201.8 33.264 199.688 34.608C197.576 35.92 195.352 36.576 193.016 36.576C189.368 36.576 186.728 35.6 185.096 33.648C183.464 31.664 182.648 28.736 182.648 24.864C182.648 20.992 183.736 17.744 185.912 15.12C188.12 12.464 191.048 11.136 194.696 11.136C197.192 11.136 199.192 11.712 200.696 12.864C202.232 13.984 203 15.744 203 18.144C203 20.512 201.912 22.304 199.736 23.52C197.592 24.704 194.968 25.296 191.864 25.296C190.776 25.296 189.656 25.232 188.504 25.104ZM188.552 21.312C189.512 21.504 190.52 21.6 191.576 21.6C193.88 21.6 195.816 21.168 197.384 20.304C197.576 19.536 197.672 18.928 197.672 18.48C197.672 17.36 197.272 16.512 196.472 15.936C195.672 15.36 194.568 15.072 193.16 15.072C191.784 15.072 190.536 15.52 189.416 16.416C188.84 18.08 188.552 19.712 188.552 21.312Z" fill="#E2856E"/>
</svg>
