<svg width="32" height="27" viewBox="0 0 32 27" fill="none" xmlns="http://www.w3.org/2000/svg">
<path d="M13.093 6.352C11.109 6.224 9.605 6.704 8.581 7.792C7.557 8.816 7.045 10.288 7.045 12.208C7.045 12.912 7.077 13.456 7.141 13.84H13.861V26.896H0.805001V13.84C0.805001 9.68 1.669 6.448 3.397 4.144C5.125 1.83999 7.685 0.687994 11.077 0.687994C12.293 0.687994 13.221 0.751995 13.861 0.879997L13.093 6.352ZM30.469 6.352C28.485 6.224 26.981 6.704 25.957 7.792C24.933 8.816 24.421 10.288 24.421 12.208C24.421 12.912 24.453 13.456 24.517 13.84H31.237V26.896H18.181V13.84C18.181 9.68 19.045 6.448 20.773 4.144C22.501 1.83999 25.061 0.687994 28.453 0.687994C29.669 0.687994 30.597 0.751995 31.237 0.879997L30.469 6.352Z" fill="white"/>
</svg>
