<svg width="300" height="37" viewBox="0 0 300 37" fill="none" xmlns="http://www.w3.org/2000/svg">
<path d="M33.408 36C32.416 36.384 31.344 36.576 30.192 36.576C29.04 36.576 28.144 36.368 27.504 35.952C26.864 35.536 26.336 34.912 25.92 34.08C25.312 32.864 24.624 30.8 23.856 27.888C23.088 24.944 22.48 21.728 22.032 18.24C19.344 26.784 17.808 32.608 17.424 35.712C16.016 36.096 14.752 36.288 13.632 36.288C11.808 36.288 10.464 35.632 9.6 34.32C8.736 32.976 8.112 31.232 7.728 29.088C7.728 29.024 7.488 27.68 7.008 25.056C6.528 22.432 6.176 20.608 5.952 19.584C5.216 15.84 4.448 12.704 3.648 10.176C2.88 7.648 1.744 5.92 0.24 4.992C0.624 4.032 1.216 3.28 2.016 2.736C2.816 2.192 3.712 1.92 4.704 1.92C6.912 1.92 8.496 3.584 9.456 6.912C10.128 9.248 10.928 13.216 11.856 18.816C12.784 24.384 13.472 28.368 13.92 30.768C17.536 20.656 19.344 13.968 19.344 10.704C19.344 10.032 19.264 9.568 19.104 9.312C19.776 8.544 20.72 8.16 21.936 8.16C23.184 8.16 24.144 8.496 24.816 9.168C25.52 9.84 26.08 10.928 26.496 12.432C26.912 13.904 27.488 16.8 28.224 21.12C28.992 25.44 29.584 28.656 30 30.768C31.28 26.736 32.288 23.488 33.024 21.024C33.792 18.56 34.576 15.456 35.376 11.712C36.208 7.968 36.624 4.944 36.624 2.64C36.624 2.224 36.608 1.92 36.576 1.728C36.992 1.664 37.696 1.632 38.688 1.632C39.68 1.632 40.544 1.952 41.28 2.592C42.048 3.2 42.432 4.192 42.432 5.568C42.432 6.944 41.92 9.248 40.896 12.48C39.904 15.712 38.608 19.648 37.008 24.288C35.44 28.896 34.24 32.8 33.408 36ZM51.9664 36.576C48.4464 36.576 45.8544 35.552 44.1904 33.504C42.5264 31.424 41.6944 28.544 41.6944 24.864C41.6944 21.152 42.7984 17.936 45.0064 15.216C47.2144 12.496 50.0464 11.136 53.5024 11.136C60.6064 11.136 64.1584 15.136 64.1584 23.136C64.1584 26.88 63.0064 30.064 60.7024 32.688C58.3984 35.28 55.4864 36.576 51.9664 36.576ZM48.5104 16.416C47.9344 18.272 47.6464 20.128 47.6464 21.984C47.6464 23.84 47.7104 25.28 47.8384 26.304C47.9664 27.328 48.2064 28.352 48.5584 29.376C49.2944 31.456 50.7344 32.496 52.8784 32.496C55.0544 32.496 56.4784 31.92 57.1504 30.768C57.8544 29.616 58.2064 27.84 58.2064 25.44C58.2064 18.624 56.5904 15.216 53.3584 15.216C51.5024 15.216 49.8864 15.616 48.5104 16.416ZM74.9895 35.424C73.9975 35.808 72.9415 36 71.8215 36C70.7015 36 69.7895 35.744 69.0855 35.232C68.4135 34.688 68.0775 33.952 68.0775 33.024C68.0775 32.064 68.2215 30.336 68.5095 27.84C68.7975 25.344 68.9415 22.928 68.9415 20.592C68.9415 18.224 68.5735 15.456 67.8375 12.288C68.8615 11.904 69.8695 11.712 70.8615 11.712C71.8535 11.712 72.7015 12.048 73.4055 12.72C74.1415 13.392 74.5095 14.288 74.5095 15.408C74.5095 15.984 74.4135 16.848 74.2215 18C74.0295 19.12 73.9175 19.968 73.8855 20.544C75.1335 17.696 76.6055 15.472 78.3015 13.872C80.0295 12.24 81.7415 11.424 83.4375 11.424C84.6215 11.424 85.5655 11.84 86.2695 12.672C86.9735 13.504 87.3255 14.56 87.3255 15.84C87.3255 17.088 87.0055 18.112 86.3655 18.912C85.7255 19.68 84.9255 20.064 83.9655 20.064C83.0375 20.064 82.2855 19.968 81.7095 19.776C81.8055 19.392 81.8535 19.04 81.8535 18.72C81.8535 17.408 81.3895 16.752 80.4615 16.752C79.0535 16.752 77.7255 18.176 76.4775 21.024C75.2615 23.84 74.4455 26.48 74.0295 28.944C74.1895 31.344 74.5095 33.504 74.9895 35.424ZM95.823 20.88C96.943 18.512 98.607 16.352 100.815 14.4C103.055 12.416 105.311 11.424 107.583 11.424C110.783 11.424 112.383 13.12 112.383 16.512C112.383 18.24 111.583 20.096 109.983 22.08C108.415 24.032 106.655 25.584 104.703 26.736C105.599 28.304 106.703 29.504 108.015 30.336C109.359 31.136 111.119 31.776 113.295 32.256C113.295 33.504 112.991 34.496 112.383 35.232C111.807 35.936 110.975 36.288 109.887 36.288C107.711 36.288 105.583 35.248 103.503 33.168C101.423 31.056 99.855 28.704 98.799 26.112C100.847 25.088 102.607 23.872 104.079 22.464C105.583 21.056 106.335 19.648 106.335 18.24C106.335 16.832 105.903 16.128 105.039 16.128C103.375 16.128 101.519 17.648 99.471 20.688C97.455 23.728 96.287 26.256 95.967 28.272C96.031 29.2 96.351 31.584 96.927 35.424C95.935 35.808 94.847 36 93.663 36C91.199 36 89.967 34.8 89.967 32.4C89.967 31.248 90.143 28.992 90.495 25.632C90.847 22.24 91.023 19.52 91.023 17.472C91.023 10.656 90.639 5.024 89.871 0.575998C90.895 0.191998 91.951 -2.86102e-06 93.039 -2.86102e-06C94.127 -2.86102e-06 95.023 0.367997 95.727 1.104C96.463 1.808 96.831 2.784 96.831 4.032C96.831 5.28 96.655 7.856 96.303 11.76C95.983 15.664 95.823 18.704 95.823 20.88ZM127.793 14.4C128.785 12.608 130.193 11.712 132.017 11.712C133.201 11.712 134.161 12.352 134.897 13.632C135.633 14.88 136.145 16.432 136.433 18.288C136.753 20.112 137.009 21.968 137.201 23.856C137.681 28.56 138.273 31.136 138.977 31.584C140.225 31.264 141.329 29.36 142.289 25.872C143.249 22.352 143.729 19.712 143.729 17.952C143.729 16.16 143.633 14.736 143.441 13.68C144.561 13.456 145.521 13.344 146.321 13.344C149.073 13.344 150.449 14.656 150.449 17.28C150.449 21.376 150.657 24.72 151.073 27.312C151.521 29.872 152.049 31.392 152.656 31.872C153.553 31.808 154.321 31.104 154.961 29.76C155.601 28.416 156.065 26.784 156.353 24.864C156.897 21.248 157.169 18.48 157.169 16.56C157.169 14.608 157.073 13.104 156.881 12.048C158.001 11.824 158.961 11.712 159.761 11.712C162.513 11.712 163.889 13.024 163.889 15.648C163.889 17.312 163.553 19.328 162.881 21.696C162.209 24.032 161.329 26.32 160.241 28.56C159.153 30.768 157.825 32.656 156.257 34.224C154.721 35.792 153.185 36.576 151.649 36.576C149.889 36.576 148.561 35.264 147.665 32.64C146.961 30.656 146.385 28.08 145.937 24.912C145.649 25.968 145.441 26.736 145.313 27.216C145.185 27.696 144.961 28.416 144.641 29.376C144.321 30.336 144.033 31.072 143.777 31.584C143.521 32.096 143.169 32.704 142.721 33.408C142.305 34.112 141.873 34.624 141.424 34.944C140.305 35.84 139.057 36.288 137.681 36.288C136.337 36.288 135.217 35.68 134.321 34.464C133.457 33.248 132.849 31.696 132.497 29.808C132.177 27.92 131.889 25.984 131.633 24C131.025 18.944 129.745 15.744 127.793 14.4ZM167.079 12.144C168.103 11.856 169.127 11.712 170.151 11.712C171.207 11.712 172.103 12.032 172.839 12.672C173.575 13.312 173.943 14.144 173.943 15.168C173.943 16.16 173.767 17.904 173.415 20.4C173.095 22.864 172.935 24.784 172.935 26.16C172.935 29.744 173.271 32.832 173.943 35.424C172.951 35.808 171.879 36 170.727 36C169.575 36 168.663 35.744 167.991 35.232C167.319 34.688 166.983 33.92 166.983 32.928C166.983 31.904 167.175 30.24 167.559 27.936C167.943 25.632 168.135 23.728 168.135 22.224C168.135 18.224 167.783 14.864 167.079 12.144ZM167.703 1.296C168.823 0.783998 169.927 0.527999 171.015 0.527999C172.103 0.527999 172.903 0.815999 173.415 1.392C173.959 1.936 174.231 2.752 174.231 3.84C174.231 4.928 173.863 5.888 173.127 6.72C172.423 7.552 171.495 7.968 170.343 7.968C167.975 7.968 166.791 6.736 166.791 4.272C166.791 3.184 167.095 2.192 167.703 1.296ZM180.993 4.656C182.017 4.144 183.057 3.888 184.113 3.888C185.169 3.888 186.017 4.224 186.657 4.896C187.329 5.568 187.665 6.56 187.665 7.872C187.665 9.184 187.585 10.672 187.425 12.336C189.825 12.336 192.113 12 194.289 11.328C194.673 11.968 194.865 12.72 194.865 13.584C194.865 14.416 194.481 15.104 193.713 15.648C192.977 16.16 192.225 16.416 191.457 16.416C190.689 16.416 189.825 16.32 188.865 16.128C187.905 15.936 187.281 15.824 186.993 15.792C186.961 16.08 186.865 16.656 186.705 17.52C186.577 18.384 186.465 19.136 186.369 19.776C186.113 21.536 185.985 23.424 185.985 25.44C185.985 29.824 187.409 32.016 190.257 32.016C191.313 32.016 192.529 31.648 193.905 30.912C194.321 31.52 194.529 32.304 194.529 33.264C194.529 34.224 194.001 34.976 192.945 35.52C191.921 36.032 190.689 36.288 189.249 36.288C183.617 36.288 180.801 33.088 180.801 26.688C180.801 25.76 180.929 24.08 181.185 21.648C181.473 19.216 181.617 17.248 181.617 15.744C180.081 15.84 178.849 16.112 177.921 16.56C177.537 15.984 177.345 15.328 177.345 14.592C177.345 13.824 177.617 13.2 178.161 12.72C178.705 12.208 179.377 11.952 180.177 11.952C180.977 11.952 181.505 11.968 181.761 12C181.793 11.744 181.809 11.408 181.809 10.992C181.809 8.592 181.537 6.48 180.993 4.656ZM220.234 16.608L219.755 27.168C219.755 29.984 220.219 32.832 221.147 35.712C220.155 36.096 219.147 36.288 218.123 36.288C215.339 36.288 213.947 34.816 213.947 31.872C213.947 29.696 214.139 27.136 214.523 24.192C214.907 21.248 215.099 19.44 215.099 18.768C215.099 17.104 214.347 16.272 212.843 16.272C211.243 16.272 209.467 17.776 207.515 20.784C205.563 23.76 204.443 26.256 204.155 28.272C204.219 29.2 204.539 31.584 205.115 35.424C204.123 35.808 203.035 36 201.851 36C199.387 36 198.155 34.8 198.155 32.4C198.155 31.248 198.331 28.992 198.683 25.632C199.035 22.24 199.211 19.52 199.211 17.472C199.211 10.656 198.827 5.024 198.059 0.575998C199.083 0.191998 200.139 -2.86102e-06 201.227 -2.86102e-06C202.315 -2.86102e-06 203.211 0.367997 203.915 1.104C204.651 1.808 205.019 2.784 205.019 4.032C205.019 5.28 204.843 7.856 204.491 11.76C204.171 15.664 204.011 18.704 204.011 20.88C205.131 18.512 206.763 16.352 208.907 14.4C211.083 12.416 213.243 11.424 215.387 11.424C218.619 11.424 220.234 13.152 220.234 16.608Z" fill="#333333"/>
<path d="M274.486 4.608L274.246 12.528C274.246 16.88 274.374 20.784 274.63 24.24C274.886 27.664 275.462 31.392 276.358 35.424C275.654 36 274.534 36.288 272.998 36.288C270.022 36.288 268.534 34.992 268.534 32.4C268.534 30.256 268.63 26.976 268.822 22.56C269.046 18.144 269.158 14.688 269.158 12.192C267.43 14.688 265.606 17.776 263.686 21.456C261.798 25.104 260.854 27.344 260.854 28.176C260.854 29.008 260.934 29.648 261.094 30.096C260.39 30.544 259.446 30.768 258.262 30.768C257.11 30.768 256.134 30.448 255.334 29.808C254.566 29.168 253.91 28.288 253.366 27.168C252.854 26.048 251.926 23.856 250.582 20.592C249.27 17.296 248.07 14.464 246.982 12.096C246.15 17.248 245.734 21.808 245.734 25.776C245.734 29.744 245.862 32.96 246.118 35.424C245.094 35.808 244.07 36 243.046 36C240.998 36 239.974 34.976 239.974 32.928C239.974 31.36 240.326 28.24 241.03 23.568C241.766 18.864 242.134 14.896 242.134 11.664C242.134 8.432 241.958 5.408 241.606 2.592C243.334 2.144 244.678 1.92 245.638 1.92C247.398 1.92 248.582 2.544 249.19 3.792C250.15 5.808 251.558 9.024 253.414 13.44C255.302 17.824 256.838 21.2 258.022 23.568C258.342 22.896 259.078 21.456 260.23 19.248C261.414 17.008 262.39 15.104 263.158 13.536C263.958 11.936 264.758 10.048 265.558 7.872C266.39 5.664 266.918 3.744 267.142 2.112C268.294 1.792 269.414 1.632 270.502 1.632C271.622 1.632 272.566 1.872 273.334 2.352C274.102 2.832 274.486 3.584 274.486 4.608ZM285.3 25.104C285.3 27.408 285.668 29.232 286.404 30.576C287.14 31.888 288.372 32.544 290.1 32.544C291.828 32.544 293.172 31.968 294.132 30.816C295.124 29.632 295.62 28.208 295.62 26.544C296.708 26.544 297.652 26.816 298.452 27.36C299.252 27.904 299.652 28.656 299.652 29.616C299.652 31.6 298.596 33.264 296.484 34.608C294.372 35.92 292.148 36.576 289.812 36.576C286.164 36.576 283.524 35.6 281.892 33.648C280.26 31.664 279.444 28.736 279.444 24.864C279.444 20.992 280.532 17.744 282.708 15.12C284.916 12.464 287.844 11.136 291.492 11.136C293.988 11.136 295.988 11.712 297.492 12.864C299.028 13.984 299.796 15.744 299.796 18.144C299.796 20.512 298.708 22.304 296.532 23.52C294.388 24.704 291.764 25.296 288.66 25.296C287.572 25.296 286.452 25.232 285.3 25.104ZM285.348 21.312C286.308 21.504 287.316 21.6 288.372 21.6C290.676 21.6 292.612 21.168 294.18 20.304C294.372 19.536 294.468 18.928 294.468 18.48C294.468 17.36 294.068 16.512 293.268 15.936C292.468 15.36 291.364 15.072 289.956 15.072C288.58 15.072 287.332 15.52 286.212 16.416C285.636 18.08 285.348 19.712 285.348 21.312Z" fill="#E2856E"/>
</svg>
